<?xml version="1.0" standalone="no"?>
<!DOCTYPE svg PUBLIC "-//W3C//DTD SVG 20010904//EN"
 "http://www.w3.org/TR/2001/REC-SVG-20010904/DTD/svg10.dtd">
<svg version="1.0" xmlns="http://www.w3.org/2000/svg"
 width="1026.000000pt" height="1018.000000pt" viewBox="0 0 1026.000000 1018.000000"
 preserveAspectRatio="xMidYMid meet">

<g transform="translate(0.000000,1018.000000) scale(0.100000,-0.100000)"
fill="#000000" stroke="none">
<path d="M5026 7785 c-110 -23 -203 -73 -289 -155 -64 -60 -84 -87 -123 -168
-26 -53 -48 -111 -49 -129 -1 -19 -5 -37 -9 -40 -10 -11 -7 -105 4 -98 13 8
13 -1 -2 -25 -10 -16 -8 -26 10 -61 18 -33 20 -44 10 -51 -12 -7 -4 -12 14 -9
4 0 11 -11 14 -27 4 -15 12 -30 18 -34 7 -5 6 -8 -3 -8 -8 0 -20 8 -28 18 -10
12 -10 8 2 -15 8 -18 15 -35 15 -38 0 -6 25 -60 45 -95 43 -77 197 -227 303
-295 60 -39 98 -87 115 -145 17 -62 31 -396 18 -439 -13 -45 -5 -40 -271 -155
-96 -41 -263 -116 -370 -166 -596 -281 -1093 -466 -1850 -689 -96 -29 -186
-56 -200 -61 -14 -5 -56 -18 -95 -29 -320 -93 -552 -169 -785 -256 -140 -53
-466 -209 -519 -249 -19 -14 -41 -26 -48 -26 -7 0 -13 -5 -13 -10 0 -6 -8 -13
-17 -17 -30 -10 -180 -133 -267 -218 -83 -82 -196 -225 -196 -247 1 -7 19 7
40 32 47 53 51 48 11 -12 -101 -150 -169 -336 -176 -478 -4 -75 -4 -74 -12
-66 -8 8 -6 150 3 178 4 13 2 18 -4 14 -28 -17 -20 -334 9 -352 5 -3 9 -13 9
-22 0 -9 6 -28 14 -42 8 -14 26 -48 40 -76 39 -77 165 -196 250 -238 233 -113
471 -89 639 64 106 97 164 227 174 390 6 101 -2 190 -17 190 -15 0 -34 -42
-22 -49 10 -6 -1 -157 -13 -169 -13 -14 -15 11 -4 72 6 37 9 70 6 72 -3 3 -9
-16 -13 -43 -3 -26 -10 -52 -14 -58 -4 -5 -11 -30 -15 -55 -4 -25 -16 -56 -26
-69 -11 -13 -19 -29 -19 -35 0 -6 11 3 24 19 34 42 42 26 13 -26 -27 -47 -54
-66 -42 -30 3 11 2 21 -3 21 -12 0 -24 -29 -17 -41 4 -5 -1 -6 -10 -3 -10 4
-23 -3 -36 -20 -28 -35 -91 -71 -174 -98 -56 -18 -93 -23 -185 -23 -114 0
-116 0 -185 38 -79 43 -107 65 -151 122 -74 96 -104 188 -104 317 0 117 17
186 79 313 123 251 389 483 761 663 197 95 561 227 920 332 41 12 109 33 150
45 41 13 129 40 195 60 253 77 352 108 422 131 40 13 92 28 115 34 24 6 52 15
63 20 11 5 106 38 210 74 198 67 335 116 395 140 19 8 71 28 115 45 81 30 275
113 395 169 36 17 139 64 230 105 91 41 199 91 240 110 166 76 339 148 357
148 10 0 54 -7 97 -16 85 -16 138 -42 265 -129 265 -182 949 -517 1218 -597
18 -5 45 -16 60 -24 15 -8 34 -15 41 -15 8 0 28 -6 45 -14 18 -8 113 -40 212
-71 99 -31 194 -61 210 -67 27 -9 234 -72 390 -118 33 -10 101 -31 150 -48 50
-16 131 -41 180 -56 162 -49 350 -107 373 -117 12 -5 71 -25 130 -44 155 -52
322 -121 445 -185 22 -11 49 -20 61 -20 12 0 59 -24 105 -52 46 -29 91 -57
100 -63 173 -106 347 -263 445 -404 48 -68 116 -197 116 -219 0 -10 6 -24 13
-30 8 -9 12 -54 12 -150 0 -136 0 -138 -34 -205 -56 -111 -159 -187 -327 -240
-60 -19 -274 -30 -274 -14 0 6 -8 3 -17 -6 -20 -20 -8 -50 22 -56 10 -2 24 -9
32 -16 10 -11 10 -15 -1 -24 -17 -15 -105 22 -155 65 -104 89 -138 120 -156
143 -10 14 -22 28 -25 31 -14 13 -39 62 -65 127 -23 60 -26 78 -18 110 5 21 5
60 1 88 -5 28 -6 65 -3 83 3 17 2 32 -3 32 -14 0 -22 -26 -22 -73 0 -23 -4
-57 -9 -74 -6 -19 -6 -69 -1 -121 10 -110 52 -204 124 -280 134 -142 256 -188
476 -179 130 4 215 28 316 87 198 116 306 356 275 609 -6 52 -14 97 -16 100
-13 12 -13 -11 -1 -79 18 -104 6 -228 -26 -264 -11 -13 -10 -2 3 68 8 44 7 61
-2 72 -13 16 -19 135 -6 127 10 -6 9 11 -2 23 -6 5 -16 36 -23 69 -11 46 -18
60 -31 59 -9 -1 -17 3 -17 9 0 6 -7 18 -16 28 -9 10 -20 37 -25 61 -13 62 -29
87 -63 103 -19 9 -41 33 -56 61 -13 26 -60 79 -108 123 -46 42 -108 99 -138
128 -30 28 -75 61 -101 74 -27 12 -78 42 -116 66 -37 24 -98 60 -135 79 -76
40 -94 54 -69 54 28 0 146 -62 225 -118 39 -29 75 -52 79 -52 3 0 31 -17 62
-37 31 -21 70 -45 86 -53 17 -9 49 -31 70 -50 78 -67 225 -219 235 -242 5 -13
26 -45 45 -71 21 -29 32 -54 28 -64 -4 -11 -2 -14 5 -9 12 7 35 -27 25 -38 -3
-3 -1 -6 6 -6 20 0 5 44 -32 98 -18 26 -36 55 -40 65 -3 9 -11 17 -17 17 -5 0
-10 6 -10 14 0 22 -282 303 -342 341 -9 6 -54 35 -100 66 -265 178 -517 291
-973 434 -82 26 -195 62 -250 80 -55 18 -134 43 -175 55 -98 29 -579 176 -650
200 -30 9 -68 21 -85 25 -47 11 -433 151 -600 217 -328 131 -794 368 -1114
568 -34 22 -67 40 -71 40 -4 0 -33 27 -64 61 l-56 60 0 67 c0 37 -5 74 -10 82
-7 11 -10 1 -10 -35 0 -27 -5 -57 -10 -65 -7 -10 -9 12 -9 70 1 100 -27 328
-47 375 -7 17 -6 18 8 7 8 -7 21 -40 29 -75 10 -49 14 -56 17 -33 2 16 -2 39
-8 51 -6 11 -10 25 -9 31 3 12 -7 38 -33 92 -26 52 -76 103 -159 162 -146 104
-256 234 -292 346 -9 28 -19 93 -23 145 -7 93 -6 96 29 171 55 120 160 213
292 258 120 41 307 35 419 -15 71 -31 172 -129 205 -197 13 -27 27 -48 32 -48
5 0 9 -8 9 -17 0 -10 5 -25 11 -33 8 -11 9 1 5 46 -5 57 -27 120 -38 109 -3
-3 -11 1 -18 10 -8 10 -9 15 -1 15 6 0 11 5 11 10 0 6 -6 10 -14 10 -20 0 -31
21 -16 30 12 7 -27 67 -78 118 -108 108 -330 164 -506 127z m290 -90 c24 -18
12 -18 -51 -1 l-50 14 41 1 c22 1 49 -6 60 -14z m104 -31 c0 -2 -7 -4 -15 -4
-8 0 -15 4 -15 10 0 5 7 7 15 4 8 -4 15 -8 15 -10z m-566 -59 c-6 -16 -34 -21
-34 -7 0 13 11 22 26 22 8 0 11 -6 8 -15z m-94 -75 c0 -5 -5 -10 -11 -10 -5 0
-7 5 -4 10 3 6 8 10 11 10 2 0 4 -4 4 -10z m-60 -100 c0 -5 -5 -10 -11 -10 -5
0 -7 5 -4 10 3 6 8 10 11 10 2 0 4 -4 4 -10z m-20 -79 c0 -11 -4 -23 -10 -26
-5 -3 -10 -17 -10 -30 0 -13 -4 -26 -9 -30 -15 -8 -25 15 -12 28 6 6 11 23 11
37 0 15 3 30 7 33 12 13 23 7 23 -12z m-101 -83 c-1 -7 -5 -24 -9 -38 -7 -22
-8 -21 -9 13 -1 20 4 37 9 37 6 0 10 -6 9 -12z m58 -60 c-3 -7 -5 -2 -5 12 0
14 2 19 5 13 2 -7 2 -19 0 -25z m13 -38 c0 -5 -4 -10 -10 -10 -5 0 -10 5 -10
10 0 6 5 10 10 10 6 0 10 -4 10 -10z m-83 -32 c-3 -8 -6 -5 -6 6 -1 11 2 17 5
13 3 -3 4 -12 1 -19z m103 -68 c0 -5 -2 -10 -4 -10 -3 0 -8 5 -11 10 -3 6 -1
10 4 10 6 0 11 -4 11 -10z m460 -1066 c0 -8 -4 -12 -10 -9 -5 3 -10 10 -10 16
0 5 5 9 10 9 6 0 10 -7 10 -16z m124 -90 c11 -28 6 -39 -9 -20 -8 11 -15 23
-15 28 0 14 18 9 24 -8z m-700 -329 c-4 -8 -12 -15 -20 -15 -8 0 -14 7 -14 15
0 8 9 15 20 15 13 0 18 -5 14 -15z m1386 -145 c8 -5 11 -12 7 -16 -4 -4 -15 0
-24 9 -18 18 -8 23 17 7z m122 -62 c36 -19 39 -24 21 -26 -23 -3 -73 24 -73
39 0 13 4 12 52 -13z m2698 -928 c8 -5 11 -10 5 -10 -5 0 -17 5 -25 10 -8 5
-10 10 -5 10 6 0 17 -5 25 -10z m103 -37 c18 -10 34 -19 36 -20 2 -2 2 -6 -1
-9 -6 -6 -88 33 -88 41 0 10 23 5 53 -12z m67 -33 c0 -5 -4 -10 -10 -10 -5 0
-10 5 -10 10 0 6 5 10 10 10 6 0 10 -4 10 -10z m-8045 -150 c-3 -5 -10 -10
-16 -10 -5 0 -9 5 -9 10 0 6 7 10 16 10 8 0 12 -4 9 -10z m-261 -222 c-12 -22
-47 -58 -56 -58 -5 0 4 16 19 35 27 33 52 49 37 23z m9186 -748 c0 -24 -34
-130 -41 -130 -5 0 -4 12 1 26 6 14 10 42 10 63 0 21 3 41 7 44 10 10 23 8 23
-3z m-8428 -102 c-7 -7 -12 -8 -12 -2 0 14 12 26 19 19 2 -3 -1 -11 -7 -17z
m8409 -145 c-8 -15 -10 -15 -11 -2 0 17 10 32 18 25 2 -3 -1 -13 -7 -23z
m-8507 -28 c-15 -20 -29 -33 -32 -30 -5 5 46 65 55 65 2 0 -8 -16 -23 -35z"/>
<path d="M5206 6248 c4 -46 11 -87 17 -93 7 -7 8 -4 3 8 -3 10 -6 52 -6 93 0
44 -4 74 -10 74 -7 0 -8 -29 -4 -82z"/>
<path d="M2554 3936 c-132 -30 -261 -114 -344 -224 -67 -89 -93 -158 -94 -247
0 -60 4 -78 28 -118 48 -83 124 -109 194 -67 46 28 55 59 47 162 -6 79 -5 91
18 140 34 74 98 142 162 174 80 38 183 38 263 -2 80 -41 106 -81 99 -158 -4
-47 -13 -70 -44 -114 -38 -56 -155 -152 -161 -134 -5 15 36 76 107 160 49 59
61 80 61 108 0 119 -98 171 -201 106 -62 -40 -141 -130 -188 -216 -91 -165
-193 -459 -242 -701 -12 -60 -24 -112 -26 -114 -9 -12 -35 28 -48 73 -20 69
-7 139 41 216 47 76 55 135 25 183 -38 62 -125 74 -192 27 -37 -27 -88 -105
-115 -175 -28 -72 -25 -210 6 -288 44 -116 146 -208 270 -244 147 -43 406 23
569 145 l51 39 36 -34 c29 -27 43 -33 79 -33 38 0 50 6 99 51 59 54 105 112
162 206 l35 58 -8 -40 c-4 -22 -8 -76 -8 -120 1 -67 5 -89 28 -131 35 -69 76
-94 154 -94 79 0 146 34 216 110 l54 58 34 -51 c53 -79 98 -110 167 -115 69
-5 111 13 184 77 43 39 47 40 53 21 4 -11 22 -36 42 -54 60 -59 134 -56 220
10 25 19 33 21 33 10 0 -24 41 -56 71 -56 36 0 76 18 84 39 4 9 18 48 32 86
32 88 103 214 189 336 79 111 197 260 202 254 2 -2 -33 -73 -78 -157 -96 -180
-130 -274 -132 -361 -2 -124 42 -195 125 -204 82 -10 159 29 297 148 l68 58
16 -43 c22 -58 81 -125 130 -147 84 -38 157 -20 250 62 27 24 51 39 53 34 10
-32 47 -78 75 -95 60 -36 140 -18 211 49 55 50 254 317 292 391 35 67 4 150
-56 150 -48 0 -82 -24 -119 -87 -55 -92 -166 -257 -183 -272 -14 -11 -13 -2 4
61 35 129 127 345 271 640 156 318 157 325 99 390 -23 26 -37 32 -83 36 -84 7
-104 -16 -228 -261 l-103 -203 -41 20 c-57 28 -161 27 -239 -3 -116 -45 -201
-138 -292 -321 -26 -52 -74 -132 -107 -178 -57 -79 -186 -217 -195 -208 -2 2
25 53 60 112 93 158 126 226 148 312 25 98 24 136 -5 198 -27 57 -61 89 -116
105 -55 17 -101 4 -175 -46 -59 -41 -64 -43 -70 -25 -8 25 -61 65 -97 74 -34
8 -85 -13 -114 -45 -11 -13 -45 -94 -74 -179 -63 -183 -90 -241 -177 -372 -63
-94 -93 -130 -93 -111 0 18 69 210 103 288 20 44 56 118 82 164 51 92 58 136
31 189 -20 38 -62 62 -111 62 -39 0 -91 -22 -97 -42 -3 -8 -14 -4 -34 10 -44
33 -133 48 -199 33 -157 -35 -269 -141 -360 -340 -54 -116 -82 -168 -151 -272
-70 -107 -147 -185 -152 -156 -10 52 86 254 213 448 52 79 98 158 101 176 12
66 -51 144 -118 146 -59 2 -96 -21 -141 -87 -51 -75 -59 -57 -18 41 39 95 45
126 31 168 -15 45 -72 85 -120 85 -112 0 -191 -149 -170 -318 l10 -73 -49
-113 c-46 -106 -97 -198 -144 -256 l-20 -25 7 28 c23 97 -5 226 -60 278 l-24
22 51 30 c208 118 263 380 114 544 -80 90 -185 129 -375 138 -71 3 -125 0
-166 -9z m270 -61 c108 -19 171 -50 225 -111 127 -144 72 -357 -119 -454 -58
-29 -166 -70 -172 -64 -3 2 -13 -6 -24 -18 -13 -16 -14 -19 -2 -10 12 10 18
10 24 1 4 -7 3 -9 -4 -5 -6 3 -14 2 -17 -4 -5 -7 -11 -8 -19 -1 -6 6 -26 8
-44 6 -17 -2 -35 1 -38 7 -9 13 23 38 49 38 36 0 129 53 187 107 180 167 159
392 -42 457 -122 39 -236 26 -334 -39 -122 -80 -200 -236 -174 -349 13 -59 5
-90 -26 -105 -35 -16 -70 2 -94 48 -90 177 129 456 393 500 80 13 137 12 231
-4z m3459 -57 l21 -28 -145 -287 -145 -288 -67 0 -67 0 0 38 c0 140 -120 142
-234 4 -33 -41 -40 -45 -76 -42 -22 1 -47 8 -55 15 -13 11 -14 10 -9 -6 6 -15
4 -17 -6 -7 -11 10 -18 9 -33 -5 -19 -17 -20 -17 -2 18 55 110 160 180 279
187 87 5 127 -15 155 -80 19 -41 19 -42 29 -17 62 156 233 496 261 518 25 20
71 10 94 -20z m-3469 -150 c26 -37 19 -57 -44 -129 -64 -75 -89 -115 -154
-242 l-42 -81 -52 -1 c-28 0 -52 3 -52 8 0 4 -5 5 -11 1 -14 -8 -7 17 28 101
48 115 107 217 157 273 84 91 139 114 170 70z m604 -54 c32 -22 28 -57 -25
-194 -53 -139 -53 -140 40 -140 l57 0 35 54 c19 29 41 61 50 70 37 36 105 3
105 -51 0 -23 -66 -126 -92 -144 -13 -8 -40 -4 -67 10 -19 11 -22 11 -16 -1 6
-10 5 -10 -5 -1 -7 6 -19 9 -28 6 -8 -4 -13 -2 -10 3 4 5 -13 9 -35 10 -23 0
-57 4 -74 8 -27 6 -33 5 -33 -8 0 -9 -5 -16 -11 -16 -5 0 -7 -6 -3 -12 6 -9 3
-9 -9 0 -9 8 -22 10 -28 6 -9 -5 -10 -2 -4 12 5 10 9 82 10 159 0 153 8 183
61 224 32 25 52 26 82 5z m827 -213 c17 -10 39 -37 49 -60 11 -22 22 -41 26
-41 4 0 13 14 21 31 20 49 58 89 85 89 30 0 64 -33 64 -61 0 -23 -51 -119 -73
-137 -12 -11 -83 -10 -93 1 -4 4 -16 1 -28 -5 -11 -6 -18 -8 -15 -4 12 13 -11
100 -33 123 -44 47 -106 26 -188 -64 -54 -59 -87 -72 -132 -51 -9 5 -19 4 -23
-2 -10 -16 -25 -12 -26 8 0 13 -2 12 -9 -5 -11 -27 -22 -31 -13 -5 24 67 121
158 201 187 56 20 151 19 187 -4z m553 3 c14 -10 22 -25 22 -45 0 -33 -34
-107 -59 -127 -12 -10 -12 -12 -1 -6 8 4 12 3 7 -1 -12 -14 -57 -12 -57 3 0
11 -3 10 -15 -2 -17 -17 -49 -10 -41 9 2 7 14 43 26 81 31 101 64 126 118 88z
m340 0 c12 -8 29 -28 37 -44 17 -33 21 -145 5 -135 -5 3 -10 2 -10 -3 0 -4
-24 -8 -53 -8 l-53 1 18 58 c40 130 -45 131 -161 1 -32 -36 -58 -57 -75 -58
-18 -2 -24 0 -18 8 53 70 97 117 146 153 47 34 66 43 100 43 23 0 52 -7 64
-16z m-929 -126 c4 -13 4 -38 -2 -58 -16 -59 -111 -271 -154 -345 -46 -79
-118 -165 -138 -165 -28 0 -33 65 -11 147 37 140 234 442 289 443 4 0 11 -10
16 -22z m1601 -3 c12 -33 -25 -134 -117 -322 -64 -129 -147 -243 -178 -243
-24 0 -29 66 -11 137 19 77 68 178 142 288 59 90 76 110 118 143 36 27 34 27
46 -3z m-3020 -59 c0 -2 -8 -10 -17 -17 -16 -13 -17 -12 -4 4 13 16 21 21 21
13z m-74 -101 c116 -75 18 -327 -162 -418 -56 -28 -132 -53 -139 -45 -5 5 79
212 166 411 l34 78 38 -4 c21 -3 49 -13 63 -22z"/>
<path d="M430 3809 c-6 -11 -9 -25 -6 -32 2 -7 5 -4 5 6 1 9 5 17 10 17 5 0
11 7 15 15 8 23 -12 18 -24 -6z"/>
<path d="M397 3753 c-2 -4 -7 -21 -10 -38 -6 -30 -6 -30 9 4 8 18 13 35 11 38
-3 2 -7 1 -10 -4z"/>
<path d="M351 3634 c0 -11 3 -14 6 -6 3 7 2 16 -1 19 -3 4 -6 -2 -5 -13z"/>
<path d="M7335 3611 c-78 -36 -207 -143 -357 -298 -251 -257 -340 -346 -394
-390 -29 -23 -55 -54 -58 -68 -9 -37 13 -77 54 -97 42 -20 241 -48 346 -48
l74 0 0 -68 c0 -54 4 -73 20 -89 24 -26 69 -37 102 -24 25 9 58 64 58 96 0 9
5 36 11 60 10 40 14 44 54 54 24 6 46 11 48 11 2 0 7 -21 11 -47 15 -108 98
-182 192 -169 58 8 100 29 151 79 24 22 44 39 45 36 2 -2 13 -22 24 -43 24
-46 74 -76 123 -76 91 0 204 100 326 286 43 65 88 135 102 155 13 20 26 52 30
72 5 31 1 40 -25 67 -35 34 -47 36 -100 15 -40 -16 -41 -18 -133 -176 -28 -47
-61 -99 -75 -115 l-24 -29 21 60 c12 33 63 150 115 261 52 110 94 211 94 223
0 32 -25 75 -62 106 -28 23 -39 27 -80 23 -33 -4 -57 -13 -74 -29 -14 -13 -74
-123 -134 -244 -60 -121 -131 -256 -159 -300 -57 -90 -116 -163 -125 -154 -10
9 121 258 212 405 44 71 86 142 92 156 19 40 4 96 -35 135 -28 28 -40 33 -80
33 -26 0 -59 -7 -74 -16 -36 -22 -146 -195 -228 -362 -65 -131 -67 -133 -85
-114 -19 19 -19 21 30 128 28 60 77 165 111 233 34 68 61 136 61 150 0 65 -68
131 -135 131 -16 0 -48 -9 -70 -19z m115 -61 c11 -11 20 -32 20 -47 -1 -16
-31 -86 -68 -158 -64 -123 -68 -129 -99 -131 -18 -1 -33 2 -33 7 0 6 -4 7 -10
4 -5 -3 -10 -1 -10 6 0 7 -6 4 -14 -7 -8 -10 -18 -16 -22 -11 -4 4 -2 7 5 7 7
0 10 4 7 8 -4 6 53 158 90 240 17 35 -24 2 -103 -85 -48 -53 -104 -113 -123
-132 -19 -19 -29 -31 -21 -26 9 5 12 4 8 -3 -4 -5 -16 -8 -27 -5 -11 3 -17 10
-13 16 4 6 1 7 -8 1 -8 -5 -21 -9 -29 -9 -8 0 -14 -6 -12 -13 1 -8 -2 -11 -9
-6 -18 11 230 249 324 312 85 56 116 63 147 32z m308 -146 c34 -23 28 -69 -17
-133 -34 -49 -42 -55 -74 -56 -21 0 -37 3 -37 8 0 4 -4 6 -10 2 -5 -3 -18 0
-29 6 -18 12 -17 15 21 78 66 107 99 128 146 95z m324 -11 c10 -9 18 -27 18
-39 0 -27 -40 -114 -53 -114 -4 0 -5 -5 -2 -10 4 -6 3 -10 -2 -9 -20 4 -27 -2
-13 -12 13 -9 13 -10 0 -6 -8 2 -14 11 -14 20 1 10 -3 14 -10 10 -19 -12 -40
-12 -55 0 -12 9 -13 9 -7 0 4 -8 2 -13 -8 -13 -8 0 -17 4 -20 8 -6 11 49 140
70 163 21 23 71 25 96 2z m-492 -173 c0 -5 -4 -10 -10 -10 -5 0 -10 5 -10 10
0 6 5 10 10 10 6 0 10 -4 10 -10z m-510 -167 c-36 -105 -39 -108 -76 -121 -70
-24 -68 -11 21 111 48 64 88 117 90 117 1 0 -14 -48 -35 -107z"/>
<path d="M9830 3615 c0 -3 4 -13 9 -23 6 -9 13 -30 16 -46 3 -15 8 -26 11 -23
8 7 -17 97 -27 97 -5 0 -9 -2 -9 -5z"/>
<path d="M8939 2946 c13 -16 51 -41 51 -33 0 2 -15 14 -32 27 -21 15 -28 17
-19 6z"/>
<path d="M9028 2878 c12 -12 25 -18 29 -14 4 4 -1 14 -11 22 -31 22 -43 17
-18 -8z"/>
</g>
</svg>
